# Blender v2.79 (sub 0) OBJ File: ''
# www.blender.org
mtllib cube.mtl
o cube
v 1.000000 -1.000000 -1.000000
v 1.000000 -1.000000 1.000000
v -1.000000 -1.000000 1.000000
v -1.000000 -1.000000 -1.000000
v 1.000000 1.000000 -1.000000
v 1.000000 1.000000 1.000000
v -1.000000 1.000000 1.000000
v -1.000000 1.000000 -1.000000
vt 1 1
vt 0 1
vt 1 0
vt 0 0
vn 0.0000 -1.0000 0.0000
vn 0.0000 1.0000 0.0000
vn 1.0000 0.0000 0.0000
vn -0.0000 -0.0000 1.0000
vn -1.0000 -0.0000 -0.0000
vn 0.0000 0.0000 -1.0000
usemtl Material
s off
f 1/4/1 2/2/1 3/1/1 4/3/1
f 5/2/2 8/1/2 7/3/2 6/4/2
f 1/1/3 5/3/3 6/4/3 2/2/3
f 2/1/4 6/3/4 7/4/4 3/2/4
f 3/1/5 7/3/5 8/4/5 4/2/5
f 5/4/6 1/2/6 4/1/6 8/3/6
